<mxfile host="Electron" agent="Mozilla/5.0 (Windows NT 10.0; Win64; x64) AppleWebKit/537.36 (KHTML, like Gecko) draw.io/26.2.15 Chrome/134.0.6998.205 Electron/35.2.1 Safari/537.36" version="26.2.15">
  <diagram id="C5RBs43oDa-KdzZeNtuy" name="Page-1">
    <mxGraphModel dx="815" dy="485" grid="1" gridSize="10" guides="1" tooltips="1" connect="1" arrows="1" fold="1" page="1" pageScale="1" pageWidth="900" pageHeight="185" math="0" shadow="0">
      <root>
        <mxCell id="WIyWlLk6GJQsqaUBKTNV-0" />
        <mxCell id="WIyWlLk6GJQsqaUBKTNV-1" parent="WIyWlLk6GJQsqaUBKTNV-0" />
        <mxCell id="tRsQfErmsVXFQ78CMLkT-0" value="docstring" style="shape=document;whiteSpace=wrap;html=1;boundedLbl=1;fillColor=#ffe6cc;strokeColor=#d79b00;fontFamily=Lucida Console;fontSize=10;" parent="WIyWlLk6GJQsqaUBKTNV-1" vertex="1">
          <mxGeometry x="40" y="30" width="120" height="80" as="geometry" />
        </mxCell>
        <mxCell id="tRsQfErmsVXFQ78CMLkT-6" value="retokenize" style="rounded=0;whiteSpace=wrap;html=1;fillColor=#dae8fc;strokeColor=#6c8ebf;fontFamily=Lucida Console;fontSize=10;" parent="WIyWlLk6GJQsqaUBKTNV-1" vertex="1">
          <mxGeometry x="200" y="240" width="120" height="40" as="geometry" />
        </mxCell>
        <mxCell id="tRsQfErmsVXFQ78CMLkT-8" value="usage" style="rounded=1;whiteSpace=wrap;html=1;fillColor=#f5f5f5;fontColor=#333333;strokeColor=#666666;fontFamily=Lucida Console;fontSize=10;" parent="WIyWlLk6GJQsqaUBKTNV-1" vertex="1">
          <mxGeometry x="360" y="30" width="80" height="40" as="geometry" />
        </mxCell>
        <mxCell id="tRsQfErmsVXFQ78CMLkT-9" value="args" style="rounded=1;whiteSpace=wrap;html=1;fillColor=#f5f5f5;fontColor=#333333;strokeColor=#666666;fontFamily=Lucida Console;fontSize=10;" parent="WIyWlLk6GJQsqaUBKTNV-1" vertex="1">
          <mxGeometry x="360" y="100" width="80" height="40" as="geometry" />
        </mxCell>
        <mxCell id="tRsQfErmsVXFQ78CMLkT-10" value="opts" style="rounded=1;whiteSpace=wrap;html=1;fillColor=#f5f5f5;fontColor=#333333;strokeColor=#666666;fontFamily=Lucida Console;fontSize=10;" parent="WIyWlLk6GJQsqaUBKTNV-1" vertex="1">
          <mxGeometry x="360" y="170" width="80" height="40" as="geometry" />
        </mxCell>
        <mxCell id="tRsQfErmsVXFQ78CMLkT-12" value="" style="endArrow=open;html=1;rounded=0;exitX=1;exitY=0.25;exitDx=0;exitDy=0;entryX=0;entryY=0.5;entryDx=0;entryDy=0;endFill=0;fontFamily=Lucida Console;fontSize=10;" parent="WIyWlLk6GJQsqaUBKTNV-1" source="tRsQfErmsVXFQ78CMLkT-0" target="vfhKmdzetqUp4cWUzwoT-0" edge="1">
          <mxGeometry width="50" height="50" relative="1" as="geometry">
            <mxPoint x="350" y="330" as="sourcePoint" />
            <mxPoint x="200" y="50" as="targetPoint" />
          </mxGeometry>
        </mxCell>
        <mxCell id="tRsQfErmsVXFQ78CMLkT-13" value="" style="endArrow=open;html=1;rounded=0;exitX=1;exitY=0.5;exitDx=0;exitDy=0;entryX=0;entryY=0.5;entryDx=0;entryDy=0;endFill=0;fontFamily=Lucida Console;fontSize=10;" parent="WIyWlLk6GJQsqaUBKTNV-1" target="tRsQfErmsVXFQ78CMLkT-8" edge="1">
          <mxGeometry width="50" height="50" relative="1" as="geometry">
            <mxPoint x="320" y="50" as="sourcePoint" />
            <mxPoint x="400" y="280" as="targetPoint" />
          </mxGeometry>
        </mxCell>
        <mxCell id="tRsQfErmsVXFQ78CMLkT-26" value="" style="endArrow=open;html=1;rounded=0;exitX=1;exitY=0.5;exitDx=0;exitDy=0;entryX=0;entryY=0.5;entryDx=0;entryDy=0;endFill=0;fontFamily=Lucida Console;fontSize=10;" parent="WIyWlLk6GJQsqaUBKTNV-1" source="tRsQfErmsVXFQ78CMLkT-8" edge="1">
          <mxGeometry width="50" height="50" relative="1" as="geometry">
            <mxPoint x="500" y="49.5" as="sourcePoint" />
            <mxPoint x="480" y="50" as="targetPoint" />
          </mxGeometry>
        </mxCell>
        <mxCell id="tRsQfErmsVXFQ78CMLkT-28" value="" style="endArrow=open;html=1;rounded=0;exitX=1;exitY=0.5;exitDx=0;exitDy=0;endFill=0;fontFamily=Lucida Console;fontSize=10;" parent="WIyWlLk6GJQsqaUBKTNV-1" source="tRsQfErmsVXFQ78CMLkT-9" edge="1">
          <mxGeometry width="50" height="50" relative="1" as="geometry">
            <mxPoint x="510" y="60" as="sourcePoint" />
            <mxPoint x="480" y="120" as="targetPoint" />
          </mxGeometry>
        </mxCell>
        <mxCell id="tRsQfErmsVXFQ78CMLkT-29" value="" style="endArrow=open;html=1;rounded=0;exitX=1;exitY=0.5;exitDx=0;exitDy=0;entryX=0;entryY=0.64;entryDx=0;entryDy=0;endFill=0;fontFamily=Lucida Console;fontSize=10;entryPerimeter=0;" parent="WIyWlLk6GJQsqaUBKTNV-1" source="tRsQfErmsVXFQ78CMLkT-10" target="vfhKmdzetqUp4cWUzwoT-14" edge="1">
          <mxGeometry width="50" height="50" relative="1" as="geometry">
            <mxPoint x="510" y="140" as="sourcePoint" />
            <mxPoint x="480" y="210" as="targetPoint" />
          </mxGeometry>
        </mxCell>
        <mxCell id="tRsQfErmsVXFQ78CMLkT-38" value="argopt.py" style="text;html=1;align=left;verticalAlign=middle;whiteSpace=wrap;rounded=0;fontFamily=Lucida Console;fontSize=10;" parent="WIyWlLk6GJQsqaUBKTNV-1" vertex="1">
          <mxGeometry x="200" y="220" width="60" height="20" as="geometry" />
        </mxCell>
        <mxCell id="tRsQfErmsVXFQ78CMLkT-41" value="argv" style="rounded=1;whiteSpace=wrap;html=1;fillColor=#ffe6cc;strokeColor=#d79b00;fontFamily=Lucida Console;fontSize=10;" parent="WIyWlLk6GJQsqaUBKTNV-1" vertex="1">
          <mxGeometry x="40" y="240" width="120" height="40" as="geometry" />
        </mxCell>
        <mxCell id="tRsQfErmsVXFQ78CMLkT-42" value="argv" style="rounded=1;whiteSpace=wrap;html=1;fillColor=#f5f5f5;fontColor=#333333;strokeColor=#666666;fontFamily=Lucida Console;fontSize=10;" parent="WIyWlLk6GJQsqaUBKTNV-1" vertex="1">
          <mxGeometry x="360" y="240" width="80" height="40" as="geometry" />
        </mxCell>
        <mxCell id="tRsQfErmsVXFQ78CMLkT-43" value="" style="endArrow=open;html=1;rounded=0;exitX=1;exitY=0.5;exitDx=0;exitDy=0;entryX=0;entryY=0.5;entryDx=0;entryDy=0;endFill=0;fontFamily=Lucida Console;fontSize=10;" parent="WIyWlLk6GJQsqaUBKTNV-1" source="tRsQfErmsVXFQ78CMLkT-41" target="tRsQfErmsVXFQ78CMLkT-6" edge="1">
          <mxGeometry width="50" height="50" relative="1" as="geometry">
            <mxPoint x="170" y="10" as="sourcePoint" />
            <mxPoint x="210" y="10" as="targetPoint" />
          </mxGeometry>
        </mxCell>
        <mxCell id="tRsQfErmsVXFQ78CMLkT-44" value="" style="endArrow=open;html=1;rounded=0;exitX=1;exitY=0.5;exitDx=0;exitDy=0;entryX=0;entryY=0.5;entryDx=0;entryDy=0;endFill=0;fontFamily=Lucida Console;fontSize=10;" parent="WIyWlLk6GJQsqaUBKTNV-1" source="tRsQfErmsVXFQ78CMLkT-6" target="tRsQfErmsVXFQ78CMLkT-42" edge="1">
          <mxGeometry width="50" height="50" relative="1" as="geometry">
            <mxPoint x="170" y="290" as="sourcePoint" />
            <mxPoint x="210" y="290" as="targetPoint" />
          </mxGeometry>
        </mxCell>
        <mxCell id="tRsQfErmsVXFQ78CMLkT-45" value="" style="endArrow=open;html=1;rounded=0;exitX=1;exitY=0.5;exitDx=0;exitDy=0;endFill=0;fontFamily=Lucida Console;fontSize=10;entryX=0;entryY=0.92;entryDx=0;entryDy=0;entryPerimeter=0;" parent="WIyWlLk6GJQsqaUBKTNV-1" source="tRsQfErmsVXFQ78CMLkT-42" target="vfhKmdzetqUp4cWUzwoT-14" edge="1">
          <mxGeometry width="50" height="50" relative="1" as="geometry">
            <mxPoint x="490" y="220" as="sourcePoint" />
            <mxPoint x="477" y="280" as="targetPoint" />
          </mxGeometry>
        </mxCell>
        <mxCell id="tRsQfErmsVXFQ78CMLkT-54" value="argvec.py" style="text;html=1;align=left;verticalAlign=middle;whiteSpace=wrap;rounded=0;fontFamily=Lucida Console;fontSize=10;" parent="WIyWlLk6GJQsqaUBKTNV-1" vertex="1">
          <mxGeometry x="480" y="10" width="60" height="20" as="geometry" />
        </mxCell>
        <mxCell id="tRsQfErmsVXFQ78CMLkT-55" value="list[str]" style="text;html=1;align=left;verticalAlign=middle;whiteSpace=wrap;rounded=0;fontFamily=Lucida Console;fontSize=10;" parent="WIyWlLk6GJQsqaUBKTNV-1" vertex="1">
          <mxGeometry x="360" y="220" width="60" height="20" as="geometry" />
        </mxCell>
        <mxCell id="tRsQfErmsVXFQ78CMLkT-56" value="list[str]" style="text;html=1;align=left;verticalAlign=middle;whiteSpace=wrap;rounded=0;fontFamily=Lucida Console;fontSize=10;" parent="WIyWlLk6GJQsqaUBKTNV-1" vertex="1">
          <mxGeometry x="40" y="220" width="60" height="20" as="geometry" />
        </mxCell>
        <mxCell id="tRsQfErmsVXFQ78CMLkT-57" value="str" style="text;html=1;align=left;verticalAlign=middle;whiteSpace=wrap;rounded=0;fontFamily=Lucida Console;fontSize=10;" parent="WIyWlLk6GJQsqaUBKTNV-1" vertex="1">
          <mxGeometry x="40" y="10" width="60" height="20" as="geometry" />
        </mxCell>
        <mxCell id="tRsQfErmsVXFQ78CMLkT-58" value="hints.py" style="text;html=1;align=left;verticalAlign=middle;whiteSpace=wrap;rounded=0;fontFamily=Lucida Console;fontSize=10;" parent="WIyWlLk6GJQsqaUBKTNV-1" vertex="1">
          <mxGeometry x="200" y="310" width="60" height="20" as="geometry" />
        </mxCell>
        <mxCell id="tRsQfErmsVXFQ78CMLkT-60" value="" style="endArrow=open;html=1;rounded=0;endFill=0;entryX=0;entryY=0.5;entryDx=0;entryDy=0;exitX=1;exitY=0.5;exitDx=0;exitDy=0;fontFamily=Lucida Console;fontSize=10;" parent="WIyWlLk6GJQsqaUBKTNV-1" source="vfhKmdzetqUp4cWUzwoT-25" target="vfhKmdzetqUp4cWUzwoT-24" edge="1">
          <mxGeometry width="50" height="50" relative="1" as="geometry">
            <mxPoint x="460" y="380" as="sourcePoint" />
            <mxPoint x="490" y="340" as="targetPoint" />
          </mxGeometry>
        </mxCell>
        <mxCell id="vfhKmdzetqUp4cWUzwoT-0" value="parse_docstr_usage" style="rounded=0;whiteSpace=wrap;html=1;fillColor=#dae8fc;strokeColor=#6c8ebf;fontFamily=Lucida Console;fontSize=10;" vertex="1" parent="WIyWlLk6GJQsqaUBKTNV-1">
          <mxGeometry x="200" y="30" width="120" height="40" as="geometry" />
        </mxCell>
        <mxCell id="vfhKmdzetqUp4cWUzwoT-1" value="parse_docstr_args" style="rounded=0;whiteSpace=wrap;html=1;fillColor=#dae8fc;strokeColor=#6c8ebf;fontFamily=Lucida Console;fontSize=10;" vertex="1" parent="WIyWlLk6GJQsqaUBKTNV-1">
          <mxGeometry x="200" y="100" width="120" height="40" as="geometry" />
        </mxCell>
        <mxCell id="vfhKmdzetqUp4cWUzwoT-2" value="parse_docstr_opts" style="rounded=0;whiteSpace=wrap;html=1;fillColor=#dae8fc;strokeColor=#6c8ebf;fontFamily=Lucida Console;fontSize=10;" vertex="1" parent="WIyWlLk6GJQsqaUBKTNV-1">
          <mxGeometry x="200" y="170" width="120" height="40" as="geometry" />
        </mxCell>
        <mxCell id="vfhKmdzetqUp4cWUzwoT-3" value="usage.py" style="text;html=1;align=left;verticalAlign=middle;whiteSpace=wrap;rounded=0;fontFamily=Lucida Console;fontSize=10;" vertex="1" parent="WIyWlLk6GJQsqaUBKTNV-1">
          <mxGeometry x="200" y="10" width="60" height="20" as="geometry" />
        </mxCell>
        <mxCell id="vfhKmdzetqUp4cWUzwoT-4" value="argopt.py" style="text;html=1;align=left;verticalAlign=middle;whiteSpace=wrap;rounded=0;fontFamily=Lucida Console;fontSize=10;" vertex="1" parent="WIyWlLk6GJQsqaUBKTNV-1">
          <mxGeometry x="200" y="80" width="60" height="20" as="geometry" />
        </mxCell>
        <mxCell id="vfhKmdzetqUp4cWUzwoT-5" value="argopt.py" style="text;html=1;align=left;verticalAlign=middle;whiteSpace=wrap;rounded=0;fontFamily=Lucida Console;fontSize=10;" vertex="1" parent="WIyWlLk6GJQsqaUBKTNV-1">
          <mxGeometry x="200" y="150" width="60" height="20" as="geometry" />
        </mxCell>
        <mxCell id="vfhKmdzetqUp4cWUzwoT-6" value="" style="endArrow=open;html=1;rounded=0;exitX=1;exitY=0.25;exitDx=0;exitDy=0;entryX=0;entryY=0.5;entryDx=0;entryDy=0;edgeStyle=orthogonalEdgeStyle;endFill=0;fontFamily=Lucida Console;fontSize=10;" edge="1" parent="WIyWlLk6GJQsqaUBKTNV-1" source="tRsQfErmsVXFQ78CMLkT-0" target="vfhKmdzetqUp4cWUzwoT-1">
          <mxGeometry width="50" height="50" relative="1" as="geometry">
            <mxPoint x="330" y="60" as="sourcePoint" />
            <mxPoint x="390" y="140" as="targetPoint" />
          </mxGeometry>
        </mxCell>
        <mxCell id="vfhKmdzetqUp4cWUzwoT-8" value="" style="endArrow=open;html=1;rounded=0;exitX=1;exitY=0.25;exitDx=0;exitDy=0;entryX=0;entryY=0.5;entryDx=0;entryDy=0;edgeStyle=orthogonalEdgeStyle;endFill=0;fontFamily=Lucida Console;fontSize=10;" edge="1" parent="WIyWlLk6GJQsqaUBKTNV-1" source="tRsQfErmsVXFQ78CMLkT-0" target="vfhKmdzetqUp4cWUzwoT-2">
          <mxGeometry width="50" height="50" relative="1" as="geometry">
            <mxPoint x="170" y="60" as="sourcePoint" />
            <mxPoint x="210" y="140" as="targetPoint" />
          </mxGeometry>
        </mxCell>
        <mxCell id="vfhKmdzetqUp4cWUzwoT-9" value="" style="endArrow=open;html=1;rounded=0;exitX=1;exitY=0.5;exitDx=0;exitDy=0;entryX=0;entryY=0.5;entryDx=0;entryDy=0;endFill=0;fontFamily=Lucida Console;fontSize=10;" edge="1" parent="WIyWlLk6GJQsqaUBKTNV-1" source="vfhKmdzetqUp4cWUzwoT-1" target="tRsQfErmsVXFQ78CMLkT-9">
          <mxGeometry width="50" height="50" relative="1" as="geometry">
            <mxPoint x="330" y="60" as="sourcePoint" />
            <mxPoint x="370" y="60" as="targetPoint" />
          </mxGeometry>
        </mxCell>
        <mxCell id="vfhKmdzetqUp4cWUzwoT-10" value="" style="endArrow=open;html=1;rounded=0;exitX=1;exitY=0.5;exitDx=0;exitDy=0;entryX=0;entryY=0.5;entryDx=0;entryDy=0;endFill=0;fontFamily=Lucida Console;fontSize=10;" edge="1" parent="WIyWlLk6GJQsqaUBKTNV-1" source="vfhKmdzetqUp4cWUzwoT-2" target="tRsQfErmsVXFQ78CMLkT-10">
          <mxGeometry width="50" height="50" relative="1" as="geometry">
            <mxPoint x="340" y="70" as="sourcePoint" />
            <mxPoint x="380" y="70" as="targetPoint" />
          </mxGeometry>
        </mxCell>
        <mxCell id="vfhKmdzetqUp4cWUzwoT-14" value="parse_argvec" style="rounded=0;whiteSpace=wrap;html=1;fillColor=#dae8fc;strokeColor=#6c8ebf;fontFamily=Lucida Console;fontSize=10;" vertex="1" parent="WIyWlLk6GJQsqaUBKTNV-1">
          <mxGeometry x="480" y="30" width="120" height="250" as="geometry" />
        </mxCell>
        <mxCell id="vfhKmdzetqUp4cWUzwoT-15" value="argvec" style="rounded=1;whiteSpace=wrap;html=1;fillColor=#f5f5f5;fontColor=#333333;strokeColor=#666666;fontFamily=Lucida Console;fontSize=10;" vertex="1" parent="WIyWlLk6GJQsqaUBKTNV-1">
          <mxGeometry x="650" y="135" width="80" height="40" as="geometry" />
        </mxCell>
        <mxCell id="vfhKmdzetqUp4cWUzwoT-16" value="" style="endArrow=open;html=1;rounded=0;exitX=1;exitY=0.5;exitDx=0;exitDy=0;entryX=0;entryY=0.5;entryDx=0;entryDy=0;endFill=0;fontFamily=Lucida Console;fontSize=10;" edge="1" parent="WIyWlLk6GJQsqaUBKTNV-1" source="vfhKmdzetqUp4cWUzwoT-14" target="vfhKmdzetqUp4cWUzwoT-15">
          <mxGeometry width="50" height="50" relative="1" as="geometry">
            <mxPoint x="600" y="170" as="sourcePoint" />
            <mxPoint x="640" y="170" as="targetPoint" />
          </mxGeometry>
        </mxCell>
        <mxCell id="vfhKmdzetqUp4cWUzwoT-17" value="ArgVector" style="text;html=1;align=left;verticalAlign=middle;whiteSpace=wrap;rounded=0;fontFamily=Lucida Console;fontSize=10;" vertex="1" parent="WIyWlLk6GJQsqaUBKTNV-1">
          <mxGeometry x="650" y="115" width="60" height="20" as="geometry" />
        </mxCell>
        <mxCell id="vfhKmdzetqUp4cWUzwoT-18" value="type_hint" style="rounded=0;whiteSpace=wrap;html=1;fillColor=#dae8fc;strokeColor=#6c8ebf;fontFamily=Lucida Console;fontSize=10;" vertex="1" parent="WIyWlLk6GJQsqaUBKTNV-1">
          <mxGeometry x="200" y="330" width="120" height="40" as="geometry" />
        </mxCell>
        <mxCell id="vfhKmdzetqUp4cWUzwoT-19" value="UsageInfo" style="text;html=1;align=left;verticalAlign=middle;whiteSpace=wrap;rounded=0;fontFamily=Lucida Console;fontSize=10;" vertex="1" parent="WIyWlLk6GJQsqaUBKTNV-1">
          <mxGeometry x="360" y="10" width="60" height="20" as="geometry" />
        </mxCell>
        <mxCell id="vfhKmdzetqUp4cWUzwoT-20" value="ArgsInfo" style="text;html=1;align=left;verticalAlign=middle;whiteSpace=wrap;rounded=0;fontFamily=Lucida Console;fontSize=10;" vertex="1" parent="WIyWlLk6GJQsqaUBKTNV-1">
          <mxGeometry x="360" y="80" width="60" height="20" as="geometry" />
        </mxCell>
        <mxCell id="vfhKmdzetqUp4cWUzwoT-21" value="OptsInfo" style="text;html=1;align=left;verticalAlign=middle;whiteSpace=wrap;rounded=0;fontFamily=Lucida Console;fontSize=10;" vertex="1" parent="WIyWlLk6GJQsqaUBKTNV-1">
          <mxGeometry x="360" y="150" width="60" height="20" as="geometry" />
        </mxCell>
        <mxCell id="vfhKmdzetqUp4cWUzwoT-24" value="generate_data" style="rounded=0;whiteSpace=wrap;html=1;fillColor=#dae8fc;strokeColor=#6c8ebf;fontFamily=Lucida Console;fontSize=10;" vertex="1" parent="WIyWlLk6GJQsqaUBKTNV-1">
          <mxGeometry x="480" y="330" width="120" height="40" as="geometry" />
        </mxCell>
        <mxCell id="vfhKmdzetqUp4cWUzwoT-25" value="argvec" style="rounded=1;whiteSpace=wrap;html=1;fillColor=#f5f5f5;fontColor=#333333;strokeColor=#666666;fontFamily=Lucida Console;fontSize=10;" vertex="1" parent="WIyWlLk6GJQsqaUBKTNV-1">
          <mxGeometry x="360" y="330" width="80" height="40" as="geometry" />
        </mxCell>
        <mxCell id="vfhKmdzetqUp4cWUzwoT-26" value="args" style="rounded=1;whiteSpace=wrap;html=1;fillColor=#d5e8d4;strokeColor=#82b366;fontFamily=Lucida Console;fontSize=10;" vertex="1" parent="WIyWlLk6GJQsqaUBKTNV-1">
          <mxGeometry x="640" y="330" width="80" height="40" as="geometry" />
        </mxCell>
        <mxCell id="vfhKmdzetqUp4cWUzwoT-27" value="YadOptArgs" style="text;html=1;align=left;verticalAlign=middle;whiteSpace=wrap;rounded=0;fontFamily=Lucida Console;fontSize=10;" vertex="1" parent="WIyWlLk6GJQsqaUBKTNV-1">
          <mxGeometry x="640" y="310" width="60" height="20" as="geometry" />
        </mxCell>
        <mxCell id="vfhKmdzetqUp4cWUzwoT-28" value="" style="endArrow=open;html=1;rounded=0;endFill=0;entryX=0;entryY=0.5;entryDx=0;entryDy=0;fontFamily=Lucida Console;fontSize=10;exitX=1;exitY=0.5;exitDx=0;exitDy=0;" edge="1" parent="WIyWlLk6GJQsqaUBKTNV-1" source="vfhKmdzetqUp4cWUzwoT-24" target="vfhKmdzetqUp4cWUzwoT-26">
          <mxGeometry width="50" height="50" relative="1" as="geometry">
            <mxPoint x="610" y="360" as="sourcePoint" />
            <mxPoint x="490" y="360" as="targetPoint" />
          </mxGeometry>
        </mxCell>
        <mxCell id="vfhKmdzetqUp4cWUzwoT-29" value="" style="endArrow=open;html=1;rounded=0;endFill=0;entryX=0;entryY=0.5;entryDx=0;entryDy=0;fontFamily=Lucida Console;fontSize=10;" edge="1" parent="WIyWlLk6GJQsqaUBKTNV-1" target="vfhKmdzetqUp4cWUzwoT-25">
          <mxGeometry width="50" height="50" relative="1" as="geometry">
            <mxPoint x="320" y="350" as="sourcePoint" />
            <mxPoint x="360" y="349.66" as="targetPoint" />
          </mxGeometry>
        </mxCell>
        <mxCell id="vfhKmdzetqUp4cWUzwoT-30" value="ArgVector" style="text;html=1;align=left;verticalAlign=middle;whiteSpace=wrap;rounded=0;fontFamily=Lucida Console;fontSize=10;" vertex="1" parent="WIyWlLk6GJQsqaUBKTNV-1">
          <mxGeometry x="360" y="310" width="60" height="20" as="geometry" />
        </mxCell>
        <mxCell id="vfhKmdzetqUp4cWUzwoT-31" value="gendat.py" style="text;html=1;align=left;verticalAlign=middle;whiteSpace=wrap;rounded=0;fontFamily=Lucida Console;fontSize=10;" vertex="1" parent="WIyWlLk6GJQsqaUBKTNV-1">
          <mxGeometry x="480" y="310" width="60" height="20" as="geometry" />
        </mxCell>
        <mxCell id="vfhKmdzetqUp4cWUzwoT-32" value="" style="endArrow=open;html=1;rounded=0;exitX=1;exitY=0.5;exitDx=0;exitDy=0;entryX=0;entryY=0.5;entryDx=0;entryDy=0;edgeStyle=orthogonalEdgeStyle;endFill=0;fontFamily=Lucida Console;fontSize=10;" edge="1" parent="WIyWlLk6GJQsqaUBKTNV-1" source="vfhKmdzetqUp4cWUzwoT-15" target="vfhKmdzetqUp4cWUzwoT-18">
          <mxGeometry width="50" height="50" relative="1" as="geometry">
            <mxPoint x="379.51" y="280" as="sourcePoint" />
            <mxPoint x="419.51" y="420" as="targetPoint" />
            <Array as="points">
              <mxPoint x="740" y="155" />
              <mxPoint x="740" y="300" />
              <mxPoint x="160" y="300" />
              <mxPoint x="160" y="350" />
            </Array>
          </mxGeometry>
        </mxCell>
      </root>
    </mxGraphModel>
  </diagram>
</mxfile>
